<svg width="30" height="28" viewBox="0 0 30 28" fill="none" xmlns="http://www.w3.org/2000/svg">
<path d="M25.08 18.2559C25.605 16.9454 25.89 15.5424 25.89 14.0006C25.89 12.8905 25.725 11.8267 25.44 10.8399C24.465 11.0712 23.445 11.1945 22.38 11.1945C20.199 11.1969 18.0493 10.6603 16.1123 9.62996C14.1753 8.59959 12.5076 7.10565 11.25 5.27408C9.90594 8.62089 7.36758 11.3127 4.155 12.798C4.095 13.1834 4.095 13.5997 4.095 14.0006C4.095 15.4725 4.37707 16.9301 4.92509 18.29C5.47312 19.6499 6.27638 20.8856 7.289 21.9264C9.33408 24.0284 12.1078 25.2094 15 25.2094C16.575 25.2094 18.09 24.8548 19.455 24.2226C20.31 25.9032 20.7 26.7357 20.67 26.7357C18.21 27.5837 16.305 28 15 28C11.37 28 7.905 26.5353 5.355 23.8988C3.80257 22.3107 2.64941 20.3581 1.995 18.2097H0V11.1945H1.635C2.13036 8.71613 3.26924 6.4218 4.93078 4.55497C6.59233 2.68815 8.71456 1.31848 11.0723 0.591299C13.43 -0.135883 15.9353 -0.19345 18.3223 0.424706C20.7093 1.04286 22.8889 2.31368 24.63 4.10232C26.5197 6.03815 27.8089 8.5061 28.335 11.1945H30V18.2097H29.91L24.57 23.2513L16.62 22.3262V19.7514H23.865L25.08 18.2559ZM10.905 13.646C11.355 13.646 11.79 13.831 12.105 14.1702C12.4216 14.4982 12.5992 14.9416 12.5992 15.4036C12.5992 15.8657 12.4216 16.309 12.105 16.637C11.79 16.9608 11.355 17.1458 10.905 17.1458C9.96 17.1458 9.195 16.3749 9.195 15.4036C9.195 14.4323 9.96 13.646 10.905 13.646ZM19.08 13.646C20.025 13.646 20.775 14.4323 20.775 15.4036C20.775 16.3749 20.025 17.1458 19.08 17.1458C18.135 17.1458 17.37 16.3749 17.37 15.4036C17.37 14.9375 17.5502 14.4904 17.8708 14.1608C18.1915 13.8312 18.6265 13.646 19.08 13.646Z" fill="#002683"/>
</svg>
