<svg width="40" height="41" viewBox="0 0 40 41" fill="none" xmlns="http://www.w3.org/2000/svg">
<path d="M35 32.0667V20.845C35 19.9408 34.816 19.046 34.4593 18.215C34.1026 17.3841 33.5806 16.6345 32.925 16.0117L22.2967 5.91667C21.6772 5.32815 20.8553 5 20.0008 5C19.1464 5 18.3245 5.32815 17.705 5.91667L7.075 16.0117C6.41942 16.6345 5.89739 17.3841 5.54067 18.215C5.18395 19.046 5 19.9408 5 20.845V32.0667C5 32.9507 5.35119 33.7986 5.97631 34.4237C6.60143 35.0488 7.44928 35.4 8.33333 35.4H31.6667C32.5507 35.4 33.3986 35.0488 34.0237 34.4237C34.6488 33.7986 35 32.9507 35 32.0667Z" stroke="#002683" stroke-width="2" stroke-linecap="round" stroke-linejoin="round"/>
<path d="M15 25.4C15 24.5159 15.3512 23.6681 15.9763 23.043C16.6014 22.4178 17.4493 22.0667 18.3333 22.0667H21.6667C22.5507 22.0667 23.3986 22.4178 24.0237 23.043C24.6488 23.6681 25 24.5159 25 25.4V35.4H15V25.4Z" stroke="#002683" stroke-width="2" stroke-linecap="round" stroke-linejoin="round"/>
</svg>
