<svg width="40" height="40" viewBox="0 0 40 40" fill="none" xmlns="http://www.w3.org/2000/svg">
<path d="M33.3262 17.7017V31.6667C33.3262 32.5507 32.9751 33.3986 32.3499 34.0237C31.7248 34.6488 30.877 35 29.9929 35H10.0062C9.12248 34.9996 8.27506 34.6482 7.6503 34.0231C7.02554 33.398 6.67458 32.5504 6.67458 31.6667V17.7017M12.5029 14.5833L13.3362 5M12.5029 14.5833C12.5029 19.42 19.9996 19.42 19.9996 14.5833M12.5029 14.5833C12.5029 19.8767 3.91124 18.7833 5.11458 14.17L6.85624 7.49167C7.04238 6.77838 7.45971 6.14692 8.04294 5.69608C8.62617 5.24523 9.34241 5.00044 10.0796 5H29.9196C30.6567 5.00044 31.373 5.24523 31.9562 5.69608C32.5394 6.14692 32.9568 6.77838 33.1429 7.49167L34.8846 14.17C36.0879 18.785 27.4962 19.8767 27.4962 14.5833M19.9996 14.5833V5M19.9996 14.5833C19.9996 19.42 27.4962 19.42 27.4962 14.5833M27.4962 14.5833L26.6629 5" stroke="#002683" stroke-width="2" stroke-linecap="round" stroke-linejoin="round"/>
</svg>
