<svg width="40" height="40" viewBox="0 0 40 40" fill="none" xmlns="http://www.w3.org/2000/svg">
<path fill-rule="evenodd" clip-rule="evenodd" d="M4.35704 9.04333C4.54627 8.58646 4.86675 8.19597 5.27793 7.92126C5.68911 7.64654 6.17253 7.49994 6.66704 7.5H23.3337C26.6489 7.5 29.8283 8.81696 32.1725 11.1612C34.5167 13.5054 35.8337 16.6848 35.8337 20C35.8337 23.3152 34.5167 26.4946 32.1725 28.8388C29.8283 31.183 26.6489 32.5 23.3337 32.5H8.3337C7.67066 32.5 7.03478 32.2366 6.56594 31.7678C6.0971 31.2989 5.8337 30.663 5.8337 30C5.8337 29.337 6.0971 28.7011 6.56594 28.2322C7.03478 27.7634 7.67066 27.5 8.3337 27.5H23.3337C25.3228 27.5 27.2305 26.7098 28.637 25.3033C30.0435 23.8968 30.8337 21.9891 30.8337 20C30.8337 18.0109 30.0435 16.1032 28.637 14.6967C27.2305 13.2902 25.3228 12.5 23.3337 12.5H12.702L14.2687 14.0667C14.7239 14.5384 14.9756 15.17 14.9696 15.8255C14.9636 16.481 14.7004 17.1079 14.2366 17.5712C13.7729 18.0345 13.1457 18.2971 12.4902 18.3025C11.8347 18.3079 11.2033 18.0556 10.732 17.6L4.8987 11.7667C4.54935 11.4171 4.31143 10.9718 4.21502 10.4871C4.11861 10.0024 4.16803 9.49998 4.35704 9.04333Z" fill="#E5713A"/>
</svg>
