<svg width="28" height="28" viewBox="0 0 28 28" fill="none" xmlns="http://www.w3.org/2000/svg">
<path d="M9.79968 19.8333L13.9997 15.6333L18.1997 19.8333L19.833 18.1999L15.633 13.9999L19.833 9.79992L18.1997 8.16658L13.9997 12.3666L9.79968 8.16658L8.16634 9.79992L12.3663 13.9999L8.16634 18.1999L9.79968 19.8333ZM13.9997 25.6666C12.3858 25.6666 10.8691 25.3601 9.44968 24.7473C8.03023 24.1344 6.79551 23.3033 5.74551 22.2541C4.69551 21.2049 3.86445 19.9701 3.25234 18.5499C2.64023 17.1297 2.33379 15.613 2.33301 13.9999C2.33223 12.3868 2.63868 10.8701 3.25234 9.44992C3.86601 8.0297 4.69706 6.79497 5.74551 5.74575C6.79395 4.69653 8.02868 3.86547 9.44968 3.25259C10.8707 2.6397 12.3873 2.33325 13.9997 2.33325C15.612 2.33325 17.1287 2.6397 18.5497 3.25259C19.9707 3.86547 21.2054 4.69653 22.2538 5.74575C23.3023 6.79497 24.1337 8.0297 24.7482 9.44992C25.3626 10.8701 25.6687 12.3868 25.6663 13.9999C25.664 15.613 25.3576 17.1297 24.747 18.5499C24.1365 19.9701 23.3054 21.2049 22.2538 22.2541C21.2023 23.3033 19.9676 24.1348 18.5497 24.7484C17.1318 25.3621 15.6151 25.6681 13.9997 25.6666Z" fill="#002683"/>
</svg>
