<svg width="26" height="26" viewBox="0 0 26 26" fill="none" xmlns="http://www.w3.org/2000/svg">
<path d="M7.3125 3.25C6.23506 3.25 5.20175 3.67801 4.43988 4.43988C3.67801 5.20175 3.25 6.23506 3.25 7.3125V18.6875C3.25 19.7649 3.67801 20.7983 4.43988 21.5601C5.20175 22.322 6.23506 22.75 7.3125 22.75H10.1091L10.4536 21.3769C10.4747 21.2923 10.498 21.2083 10.5235 21.125H7.3125C6.66603 21.125 6.04605 20.8682 5.58893 20.4111C5.13181 19.954 4.875 19.334 4.875 18.6875V9.75H22.75V7.3125C22.75 6.23506 22.322 5.20175 21.5601 4.43988C20.7983 3.67801 19.7649 3.25 18.6875 3.25H7.3125ZM12.9675 20.1126L20.8162 12.2639C21.3864 11.6941 22.1596 11.3742 22.9656 11.3745C23.7717 11.3748 24.5446 11.6953 25.1144 12.2655C25.6841 12.8357 26.004 13.6088 26.0037 14.4149C26.0034 15.221 25.6829 15.9939 25.1128 16.5636L17.264 24.4108C16.8066 24.868 16.2338 25.1926 15.6065 25.35L13.1722 25.9578C12.9302 26.0181 12.6767 26.0148 12.4363 25.9481C12.1959 25.8815 11.9768 25.7539 11.8003 25.5775C11.6239 25.4012 11.496 25.1823 11.4292 24.942C11.3623 24.7016 11.3588 24.4481 11.4189 24.206L12.0282 21.7717C12.1856 21.1445 12.5103 20.5716 12.9675 20.1143" fill="white"/>
</svg>
