<svg width="200" height="200" viewBox="0 0 200 200" fill="none" xmlns="http://www.w3.org/2000/svg">
<path d="M111.958 17.2917C108.224 15.5084 104.138 14.5829 100 14.5829C95.8618 14.5829 91.776 15.5084 88.0417 17.2917C84.7584 18.8667 81.75 21.4334 77.5417 25.025L76.8834 25.575C73.2501 28.8502 68.6016 30.7772 63.7167 31.0334L62.8667 31.1C57.35 31.5417 53.4084 31.85 49.975 33.0667C46.0729 34.4453 42.5286 36.6792 39.6015 39.6048C36.6745 42.5304 34.4389 46.0736 33.0584 49.975C31.85 53.4084 31.5417 57.35 31.1 62.8667L31.0334 63.7167C30.7772 68.6016 28.8502 73.2501 25.575 76.8834L25.025 77.5334C21.4334 81.75 18.8584 84.7584 17.2917 88.0417C15.5084 91.776 14.5829 95.8618 14.5829 100C14.5829 104.138 15.5084 108.224 17.2917 111.958C18.8667 115.242 21.4334 118.25 25.025 122.458L25.575 123.117C28.9917 127.117 30.6084 130.942 31.0334 136.283L31.1 137.133C31.5417 142.65 31.85 146.592 33.0667 150.025C34.4453 153.927 36.6792 157.471 39.6048 160.399C42.5304 163.326 46.0736 165.561 49.975 166.942C53.4084 168.15 57.35 168.458 62.8667 168.9L63.7167 168.967C68.9584 169.383 72.8 170.95 76.8834 174.425L77.5334 174.975C81.75 178.567 84.7584 181.142 88.0417 182.708C91.776 184.492 95.8618 185.417 100 185.417C104.138 185.417 108.224 184.492 111.958 182.708C115.242 181.133 118.25 178.567 122.458 174.975L123.117 174.425C127.117 171.008 130.942 169.392 136.283 168.967L137.133 168.9C142.65 168.458 146.592 168.15 150.025 166.933C153.927 165.555 157.471 163.321 160.399 160.395C163.326 157.47 165.561 153.926 166.942 150.025C168.15 146.592 168.458 142.65 168.9 137.133L168.967 136.283C169.383 131.042 170.95 127.2 174.425 123.117L174.975 122.458C178.567 118.25 181.142 115.242 182.708 111.958C184.492 108.224 185.417 104.138 185.417 100C185.417 95.8618 184.492 91.776 182.708 88.0417C181.133 84.7584 178.567 81.75 174.975 77.5417L174.425 76.8834C171.15 73.2501 169.223 68.6016 168.967 63.7167L168.9 62.8667C168.458 57.35 168.15 53.4084 166.933 49.975C165.555 46.0729 163.321 42.5286 160.395 39.6015C157.47 36.6745 153.926 34.4389 150.025 33.0584C146.592 31.85 142.65 31.5417 137.133 31.1L136.283 31.0334C131.398 30.7772 126.75 28.8502 123.117 25.575L122.458 25.025C118.25 21.4334 115.242 18.8584 111.958 17.2917Z" fill="#002683"/>
<path d="M101.925 68.1334L103.692 65.5584L98.5375 62.0209L96.7708 64.6C94.0125 68.6209 93.525 72.4375 94.0791 75.6084C94.6083 78.6667 96.0708 80.8917 96.7791 81.9167L96.7916 81.9375C97.4333 82.8625 98.125 83.8667 98.3791 85.2875C98.6166 86.6209 98.5166 88.7042 96.6791 91.725L95.0541 94.3959L100.396 97.6459L102.021 94.975C104.537 90.8334 105.071 87.225 104.533 84.1959C104.037 81.4042 102.671 79.4459 102.008 78.4917L101.917 78.3625C101.362 77.5584 100.533 76.2375 100.233 74.5375C99.9583 72.9459 100.108 70.7875 101.925 68.1334ZM66.8083 105.842V105.85H62.3333C61.7861 105.85 61.2443 105.958 60.7388 106.167C60.2333 106.377 59.7739 106.684 59.387 107.07C59.0001 107.457 58.6932 107.917 58.4838 108.422C58.2744 108.928 58.1666 109.47 58.1666 110.017C58.1666 110.564 58.2744 111.106 58.4838 111.611C58.6932 112.117 59.0001 112.576 59.387 112.963C59.7739 113.35 60.2333 113.657 60.7388 113.866C61.2443 114.076 61.7861 114.183 62.3333 114.183H66.8083C66.8127 119.706 69.0096 125.001 72.9161 128.904C76.8227 132.807 82.1192 135 87.6416 135H112.333C117.856 135 123.152 132.807 127.059 128.904C130.965 125.001 133.162 119.706 133.167 114.183H137.333C138.438 114.183 139.498 113.744 140.28 112.963C141.061 112.182 141.5 111.122 141.5 110.017C141.5 108.912 141.061 107.852 140.28 107.07C139.498 106.289 138.438 105.85 137.333 105.85H133.167V105.842H66.8083ZM83.7291 72.0417L81.9625 74.6209C80.6916 76.4709 80.6208 77.9125 80.8 78.9292C80.9958 80.0584 81.55 80.9542 81.9541 81.5375L82.0291 81.6417C82.5375 82.375 83.6583 83.9792 84.0666 86.2667C84.5083 88.7667 84.05 91.6917 82.0583 94.975L80.4333 97.6417L75.0916 94.3959L76.7166 91.7292C78.0333 89.5625 78.0541 88.1667 77.9125 87.3542C77.7458 86.45 77.3083 85.8042 76.8166 85.0959C75.7316 83.5746 74.9895 81.836 74.6416 80C74.1916 77.4042 74.6 74.3042 76.8083 71.0834L78.5791 68.5084L83.7291 72.0417ZM121.867 74.6209L123.633 72.0417L118.479 68.5084L116.712 71.0834C114.504 74.3042 114.092 77.4042 114.546 80C114.979 82.4875 116.162 84.2917 116.721 85.0959C117.212 85.8042 117.65 86.45 117.812 87.3584C117.954 88.1667 117.937 89.5667 116.617 91.725L114.992 94.3959L120.337 97.6459L121.962 94.975C123.954 91.6917 124.412 88.7667 123.967 86.2667C123.64 84.5926 122.944 83.0125 121.929 81.6417L121.858 81.5375C121.29 80.7615 120.896 79.8717 120.704 78.9292C120.525 77.9125 120.596 76.4709 121.867 74.6209Z" fill="white"/>
<path d="M105.733 133.875C105.733 127.087 111.022 121.625 117.493 121.625H144.933" stroke="#F8B78E" stroke-width="5" stroke-linecap="round" stroke-linejoin="round"/>
<path d="M139.053 115.5L144.933 121.625L139.053 127.75" stroke="#F8B78E" stroke-width="5" stroke-linecap="round" stroke-linejoin="round"/>
<path d="M144.933 131.833C144.933 138.622 139.645 144.083 133.173 144.083H105.733" stroke="#F8B78E" stroke-width="5" stroke-linecap="round" stroke-linejoin="round"/>
<path d="M111.613 150.208L105.733 144.083L111.613 137.958" stroke="#F8B78E" stroke-width="5" stroke-linecap="round" stroke-linejoin="round"/>
</svg>
