<svg width="200" height="200" viewBox="0 0 200 200" fill="none" xmlns="http://www.w3.org/2000/svg">
<path d="M111.958 17.2917C108.224 15.5084 104.138 14.5829 99.9999 14.5829C95.8617 14.5829 91.7758 15.5084 88.0416 17.2917C84.7582 18.8667 81.7499 21.4334 77.5416 25.025L76.8832 25.575C73.2499 28.8502 68.6015 30.7772 63.7166 31.0334L62.8666 31.1C57.3499 31.5417 53.4082 31.85 49.9749 33.0667C46.0728 34.4453 42.5285 36.6792 39.6014 39.6048C36.6744 42.5304 34.4387 46.0736 33.0582 49.975C31.8499 53.4084 31.5416 57.35 31.0999 62.8667L31.0332 63.7167C30.7771 68.6016 28.8501 73.2501 25.5749 76.8834L25.0249 77.5334C21.4332 81.75 18.8582 84.7584 17.2916 88.0417C15.5083 91.776 14.5828 95.8618 14.5828 100C14.5828 104.138 15.5083 108.224 17.2916 111.958C18.8666 115.242 21.4332 118.25 25.0249 122.458L25.5749 123.117C28.9916 127.117 30.6082 130.942 31.0332 136.283L31.0999 137.133C31.5416 142.65 31.8499 146.592 33.0666 150.025C34.4452 153.927 36.679 157.471 39.6046 160.399C42.5303 163.326 46.0735 165.561 49.9749 166.942C53.4082 168.15 57.3499 168.458 62.8666 168.9L63.7166 168.967C68.9582 169.383 72.7999 170.95 76.8832 174.425L77.5332 174.975C81.7499 178.567 84.7582 181.142 88.0416 182.708C91.7758 184.492 95.8617 185.417 99.9999 185.417C104.138 185.417 108.224 184.492 111.958 182.708C115.242 181.133 118.25 178.567 122.458 174.975L123.117 174.425C127.117 171.008 130.942 169.392 136.283 168.967L137.133 168.9C142.65 168.458 146.592 168.15 150.025 166.933C153.927 165.555 157.471 163.321 160.398 160.395C163.325 157.47 165.561 153.926 166.942 150.025C168.15 146.592 168.458 142.65 168.9 137.133L168.967 136.283C169.383 131.042 170.95 127.2 174.425 123.117L174.975 122.458C178.567 118.25 181.142 115.242 182.708 111.958C184.492 108.224 185.417 104.138 185.417 100C185.417 95.8618 184.492 91.776 182.708 88.0417C181.133 84.7584 178.567 81.75 174.975 77.5417L174.425 76.8834C171.15 73.2501 169.223 68.6016 168.967 63.7167L168.9 62.8667C168.458 57.35 168.15 53.4084 166.933 49.975C165.555 46.0729 163.321 42.5286 160.395 39.6015C157.47 36.6745 153.926 34.4389 150.025 33.0584C146.592 31.85 142.65 31.5417 137.133 31.1L136.283 31.0334C131.398 30.7772 126.75 28.8502 123.117 25.575L122.458 25.025C118.25 21.4334 115.242 18.8584 111.958 17.2917Z" fill="#002683"/>
<path d="M149.236 93.3281C148.877 92.827 148.423 92.4016 147.9 92.0761C147.377 91.7506 146.794 91.5316 146.186 91.4314C145.578 91.3313 144.956 91.3521 144.356 91.4925C143.756 91.633 143.19 91.8904 142.689 92.25L139.174 94.7656V88.25C139.174 87.0068 138.68 85.8145 137.801 84.9354C136.922 84.0564 135.729 83.5625 134.486 83.5625H65.7361C64.4929 83.5625 63.3006 84.0564 62.4216 84.9354C61.5425 85.8145 61.0486 87.0068 61.0486 88.25V94.7656L57.533 92.25C57.0323 91.8909 56.4658 91.634 55.8659 91.4938C55.2659 91.3537 54.6442 91.333 54.0363 91.4332C53.4283 91.5333 52.8461 91.7521 52.3227 92.0773C51.7994 92.4024 51.3452 92.8275 50.9861 93.3281C50.627 93.8288 50.3701 94.3953 50.2299 94.9952C50.0898 95.5952 50.0692 96.2169 50.1693 96.8248C50.3715 98.0526 51.0531 99.1498 52.0642 99.875L61.0486 106.289V128.875C61.0486 132.605 62.5302 136.181 65.1674 138.819C67.8047 141.456 71.3815 142.938 75.1111 142.938H125.111C128.841 142.938 132.418 141.456 135.055 138.819C137.692 136.181 139.174 132.605 139.174 128.875V106.289L148.158 99.875C148.659 99.5163 149.085 99.0623 149.41 98.5389C149.735 98.0156 149.955 97.4332 150.055 96.8251C150.155 96.217 150.134 95.5952 149.994 94.9951C149.853 94.3951 149.596 93.8286 149.236 93.3281ZM129.799 128.875C129.799 130.118 129.305 131.31 128.426 132.19C127.547 133.069 126.354 133.562 125.111 133.562H75.1111C73.8679 133.562 72.6756 133.069 71.7966 132.19C70.9175 131.31 70.4236 130.118 70.4236 128.875V92.9375H129.799V128.875ZM79.7986 72.625V63.25C79.7986 62.0068 80.2925 60.8145 81.1716 59.9354C82.0506 59.0564 83.2429 58.5625 84.4861 58.5625C85.7293 58.5625 86.9216 59.0564 87.8007 59.9354C88.6798 60.8145 89.1736 62.0068 89.1736 63.25V72.625C89.1736 73.8682 88.6798 75.0605 87.8007 75.9396C86.9216 76.8186 85.7293 77.3125 84.4861 77.3125C83.2429 77.3125 82.0506 76.8186 81.1716 75.9396C80.2925 75.0605 79.7986 73.8682 79.7986 72.625ZM95.4236 72.625V63.25C95.4236 62.0068 95.9175 60.8145 96.7966 59.9354C97.6756 59.0564 98.8679 58.5625 100.111 58.5625C101.354 58.5625 102.547 59.0564 103.426 59.9354C104.305 60.8145 104.799 62.0068 104.799 63.25V72.625C104.799 73.8682 104.305 75.0605 103.426 75.9396C102.547 76.8186 101.354 77.3125 100.111 77.3125C98.8679 77.3125 97.6756 76.8186 96.7966 75.9396C95.9175 75.0605 95.4236 73.8682 95.4236 72.625ZM111.049 72.625V63.25C111.049 62.0068 111.542 60.8145 112.422 59.9354C113.301 59.0564 114.493 58.5625 115.736 58.5625C116.979 58.5625 118.172 59.0564 119.051 59.9354C119.93 60.8145 120.424 62.0068 120.424 63.25V72.625C120.424 73.8682 119.93 75.0605 119.051 75.9396C118.172 76.8186 116.979 77.3125 115.736 77.3125C114.493 77.3125 113.301 76.8186 112.422 75.9396C111.542 75.0605 111.049 73.8682 111.049 72.625Z" fill="white"/>
</svg>
