<svg width="200" height="200" viewBox="0 0 200 200" fill="none" xmlns="http://www.w3.org/2000/svg">
<path d="M111.958 17.2917C108.224 15.5084 104.138 14.5829 100 14.5829C95.8618 14.5829 91.776 15.5084 88.0417 17.2917C84.7584 18.8667 81.75 21.4334 77.5417 25.025L76.8834 25.575C73.2501 28.8502 68.6016 30.7772 63.7167 31.0334L62.8667 31.1C57.35 31.5417 53.4084 31.85 49.975 33.0667C46.0729 34.4453 42.5286 36.6792 39.6015 39.6048C36.6745 42.5304 34.4389 46.0736 33.0584 49.975C31.85 53.4084 31.5417 57.35 31.1 62.8667L31.0334 63.7167C30.7772 68.6016 28.8502 73.2501 25.575 76.8834L25.025 77.5334C21.4334 81.75 18.8584 84.7584 17.2917 88.0417C15.5084 91.776 14.5829 95.8618 14.5829 100C14.5829 104.138 15.5084 108.224 17.2917 111.958C18.8667 115.242 21.4334 118.25 25.025 122.458L25.575 123.117C28.9917 127.117 30.6084 130.942 31.0334 136.283L31.1 137.133C31.5417 142.65 31.85 146.592 33.0667 150.025C34.4453 153.927 36.6792 157.471 39.6048 160.399C42.5304 163.326 46.0736 165.561 49.975 166.942C53.4084 168.15 57.35 168.458 62.8667 168.9L63.7167 168.967C68.9584 169.383 72.8 170.95 76.8834 174.425L77.5334 174.975C81.75 178.567 84.7584 181.142 88.0417 182.708C91.776 184.492 95.8618 185.417 100 185.417C104.138 185.417 108.224 184.492 111.958 182.708C115.242 181.133 118.25 178.567 122.458 174.975L123.117 174.425C127.117 171.008 130.942 169.392 136.283 168.967L137.133 168.9C142.65 168.458 146.592 168.15 150.025 166.933C153.927 165.555 157.471 163.321 160.399 160.395C163.326 157.47 165.561 153.926 166.942 150.025C168.15 146.592 168.458 142.65 168.9 137.133L168.967 136.283C169.383 131.042 170.95 127.2 174.425 123.117L174.975 122.458C178.567 118.25 181.142 115.242 182.708 111.958C184.492 108.224 185.417 104.138 185.417 100C185.417 95.8618 184.492 91.776 182.708 88.0417C181.133 84.7584 178.567 81.75 174.975 77.5417L174.425 76.8834C171.15 73.2501 169.223 68.6016 168.967 63.7167L168.9 62.8667C168.458 57.35 168.15 53.4084 166.933 49.975C165.555 46.0729 163.321 42.5286 160.395 39.6015C157.47 36.6745 153.926 34.4389 150.025 33.0584C146.592 31.85 142.65 31.5417 137.133 31.1L136.283 31.0334C131.398 30.7772 126.75 28.8502 123.117 25.575L122.458 25.025C118.25 21.4334 115.242 18.8584 111.958 17.2917Z" fill="#002683"/>
<path d="M83.9166 78.2916C83.2206 77.8999 82.4009 77.7895 81.626 77.9833C80.8511 78.177 80.1798 78.6601 79.75 79.3333L73.9583 88.7916C73.8573 88.9429 73.7211 89.0673 73.5615 89.1544C73.4018 89.2415 73.2235 89.2886 73.0416 89.2916H71.875C71.5504 89.2848 71.229 89.3572 70.9386 89.5023C70.6483 89.6475 70.3976 89.8612 70.2083 90.125C70.0142 90.3837 69.8831 90.6841 69.8252 91.0023C69.7674 91.3205 69.7844 91.6478 69.875 91.9583L76.125 112.792C76.245 113.228 76.5065 113.612 76.8685 113.884C77.2305 114.155 77.6725 114.299 78.125 114.292H98.9583C99.3915 114.288 99.8129 114.15 100.164 113.896C100.515 113.642 100.778 113.285 100.917 112.875L107.875 92.0416C107.98 91.7295 108.01 91.3967 107.962 91.0707C107.914 90.7448 107.789 90.4348 107.598 90.1664C107.407 89.898 107.155 89.6788 106.863 89.5267C106.57 89.3746 106.246 89.2941 105.917 89.2916H104.042C103.86 89.2886 103.681 89.2415 103.522 89.1544C103.362 89.0673 103.226 88.9429 103.125 88.7916L97.4583 79.3333C97.0273 78.6095 96.3265 78.0865 95.5099 77.8794C94.6933 77.6724 93.8279 77.7982 93.1041 78.2291C92.3803 78.6601 91.8573 79.361 91.6503 80.1775C91.4432 80.9941 91.569 81.8595 92 82.5833L95.0833 87.7083C95.164 87.8701 95.206 88.0484 95.206 88.2291C95.206 88.4099 95.164 88.5882 95.0833 88.75C94.9933 88.9144 94.8607 89.0514 94.6994 89.1468C94.5381 89.2421 94.354 89.2922 94.1666 89.2916H82.7916C82.6093 89.2842 82.4317 89.2309 82.2755 89.1366C82.1193 89.0422 81.9894 88.9099 81.898 88.752C81.8066 88.594 81.7565 88.4156 81.7525 88.2331C81.7484 88.0506 81.7906 87.8701 81.875 87.7083L84.9583 82.5833C85.3887 81.8759 85.5207 81.0266 85.3254 80.222C85.1301 79.4173 84.6234 78.723 83.9166 78.2916ZM148.833 132.708C149.133 131.379 148.917 129.986 148.228 128.81C147.54 127.634 146.431 126.764 145.125 126.375L129.5 121.833C129.284 121.77 129.094 121.639 128.958 121.458C128.823 121.278 128.75 121.059 128.75 120.833V101.792C128.75 100.687 128.311 99.6268 127.53 98.8454C126.748 98.064 125.688 97.625 124.583 97.625C123.478 97.625 122.418 98.064 121.637 98.8454C120.856 99.6268 120.417 100.687 120.417 101.792V131.208C120.417 131.434 120.344 131.653 120.208 131.833C120.073 132.014 119.883 132.145 119.667 132.208C119.453 132.266 119.226 132.258 119.018 132.183C118.809 132.109 118.629 131.972 118.5 131.792C112.333 122.875 102.667 125.708 107.208 132.667L119.708 151.333C119.795 151.476 119.918 151.593 120.064 151.673C120.21 151.754 120.375 151.794 120.542 151.792H144.625C144.872 151.787 145.111 151.697 145.3 151.538C145.49 151.379 145.619 151.16 145.667 150.917L148.708 134.25L148.833 132.708Z" fill="white"/>
<path d="M103.792 141.375C103.792 140.27 103.353 139.21 102.571 138.429C101.79 137.647 100.73 137.208 99.6249 137.208H98.5833C98.307 137.208 98.042 137.099 97.8467 136.903C97.6513 136.708 97.5416 136.443 97.5416 136.167V133.958C97.5463 133.722 97.6314 133.494 97.7828 133.312C97.9343 133.13 98.1431 133.006 98.3749 132.958C99.48 132.848 100.496 132.303 101.199 131.443C101.902 130.584 102.235 129.48 102.125 128.375C102.014 127.27 101.469 126.254 100.61 125.551C99.7504 124.848 98.6467 124.514 97.5416 124.625H62.1249C61.5724 124.625 61.0425 124.406 60.6518 124.015C60.2611 123.624 60.0416 123.094 60.0416 122.542V72.5417C60.0416 71.9891 60.2611 71.4592 60.6518 71.0685C61.0425 70.6778 61.5724 70.4583 62.1249 70.4583H137.125C137.677 70.4583 138.207 70.6778 138.598 71.0685C138.989 71.4592 139.208 71.9891 139.208 72.5417V116.292C139.208 117.397 139.647 118.457 140.429 119.238C141.21 120.019 142.27 120.458 143.375 120.458C144.48 120.458 145.54 120.019 146.321 119.238C147.103 118.457 147.542 117.397 147.542 116.292V70.4583C147.542 68.2482 146.664 66.1286 145.101 64.5658C143.538 63.003 141.418 62.125 139.208 62.125H60.0416C57.8314 62.125 55.7118 63.003 54.149 64.5658C52.5862 66.1286 51.7083 68.2482 51.7083 70.4583V124.625C51.7083 126.835 52.5862 128.955 54.149 130.518C55.7118 132.08 57.8314 132.958 60.0416 132.958H88.1666C88.4429 132.958 88.7078 133.068 88.9032 133.263C89.0985 133.459 89.2083 133.724 89.2083 134V136.167C89.2083 136.443 89.0985 136.708 88.9032 136.903C88.7078 137.099 88.4429 137.208 88.1666 137.208H78.7916C77.6865 137.208 76.6267 137.647 75.8453 138.429C75.0639 139.21 74.6249 140.27 74.6249 141.375C74.6249 142.48 75.0639 143.54 75.8453 144.321C76.6267 145.103 77.6865 145.542 78.7916 145.542H99.6249C100.73 145.542 101.79 145.103 102.571 144.321C103.353 143.54 103.792 142.48 103.792 141.375Z" fill="white"/>
</svg>
