<svg width="28" height="28" viewBox="0 0 28 28" fill="none" xmlns="http://www.w3.org/2000/svg">
<path fill-rule="evenodd" clip-rule="evenodd" d="M3.5 10.5C3.5 7.20067 3.5 5.54983 4.5255 4.5255C5.54983 3.5 7.20067 3.5 10.5 3.5H17.9002C18.8545 3.5 19.3305 3.5 19.7598 3.67733C20.188 3.85467 20.5252 4.193 21.2007 4.86733L23.1327 6.79933C23.8082 7.47367 24.1442 7.812 24.3227 8.24017C24.5 8.6695 24.5 9.1455 24.5 10.0998V17.5C24.5 20.7993 24.5 22.4502 23.4745 23.4745C22.7267 24.2235 21.6452 24.4253 19.8333 24.4802V20.9277C19.8333 20.1647 19.8333 19.4798 19.7587 18.9245C19.677 18.3178 19.488 17.6972 18.9793 17.1873C18.4695 16.6787 17.8477 16.4897 17.2422 16.408C16.6868 16.3333 16.002 16.3333 15.239 16.3333H11.5943C10.8313 16.3333 10.1465 16.3333 9.59117 16.408C8.9845 16.4897 8.36383 16.6787 7.854 17.1873C7.34533 17.6972 7.15633 18.319 7.07467 18.9245C7 19.4798 7 20.1647 7 20.9277V24.4113C5.8625 24.2993 5.09717 24.0462 4.5255 23.4745C3.5 22.4502 3.5 20.7993 3.5 17.5V10.5ZM17.5 21V24.5H10.5C10.0862 24.5 9.69733 24.4992 9.33333 24.4977V21C9.33333 20.1425 9.33567 19.6163 9.387 19.2348C9.4325 18.9012 9.4955 18.8452 9.50367 18.8382C9.51183 18.83 9.56667 18.7658 9.9015 18.7203C10.283 18.669 10.8092 18.6667 11.6667 18.6667H15.1667C16.0242 18.6667 16.5503 18.669 16.9318 18.7203C17.2667 18.7658 17.3215 18.8288 17.3285 18.837H17.3297C17.3378 18.8452 17.4008 18.9012 17.4463 19.2348C17.4977 19.6163 17.5 20.1425 17.5 21ZM8.16667 8.16667C7.85725 8.16667 7.5605 8.28958 7.34171 8.50838C7.12292 8.72717 7 9.02391 7 9.33333C7 9.64275 7.12292 9.9395 7.34171 10.1583C7.5605 10.3771 7.85725 10.5 8.16667 10.5H14C14.3094 10.5 14.6062 10.3771 14.825 10.1583C15.0437 9.9395 15.1667 9.64275 15.1667 9.33333C15.1667 9.02391 15.0437 8.72717 14.825 8.50838C14.6062 8.28958 14.3094 8.16667 14 8.16667H8.16667Z" fill="white"/>
</svg>
